<?xml version="1.0" encoding="UTF-8" standalone="no"?><svg xmlns="http://www.w3.org/2000/svg" xmlns:xlink="http://www.w3.org/1999/xlink" contentScriptType="application/ecmascript" contentStyleType="text/css" height="876px" preserveAspectRatio="none" style="width:1491px;height:876px;" version="1.1" viewBox="0 0 1491 876" width="1491px" zoomAndPan="magnify"><defs><filter height="300%" id="fdtj90c6u4jqi" width="300%" x="-1" y="-1"><feGaussianBlur result="blurOut" stdDeviation="2.0"/><feColorMatrix in="blurOut" result="blurOut2" type="matrix" values="0 0 0 0 0 0 0 0 0 0 0 0 0 0 0 0 0 0 .4 0"/><feOffset dx="4.0" dy="4.0" in="blurOut2" result="blurOut3"/><feBlend in="SourceGraphic" in2="blurOut3" mode="normal"/></filter></defs><g><text fill="#000000" font-family="sans-serif" font-size="18" lengthAdjust="spacing" textLength="147" x="664.5" y="16.708">Kong Use Cases</text><!--MD5=[8699c0c8e953ee53654a072cc875bfb4]
cluster Browser--><rect fill="#FFFFFF" filter="url(#fdtj90c6u4jqi)" height="675" style="stroke:#000000;stroke-width:1.5;" width="1174" x="7" y="189.7549"/><text fill="#000000" font-family="sans-serif" font-size="14" font-weight="bold" lengthAdjust="spacing" textLength="66" x="561" y="204.75">Browser</text><!--MD5=[e6e61d846f7ebc290f4b7ed94825158d]
cluster HTTP--><rect fill="#FFFFFF" filter="url(#fdtj90c6u4jqi)" height="89" style="stroke:#000000;stroke-width:1.5;" width="744" x="413" y="232.7549"/><text fill="#000000" font-family="sans-serif" font-size="14" font-weight="bold" lengthAdjust="spacing" textLength="43" x="763.5" y="247.75">HTTP</text><!--MD5=[04563cfb8fc45cb1441f9001368ca62a]
cluster HTML--><rect fill="#FFFFFF" filter="url(#fdtj90c6u4jqi)" height="89" style="stroke:#000000;stroke-width:1.5;" width="358" x="31" y="232.7549"/><text fill="#000000" font-family="sans-serif" font-size="14" font-weight="bold" lengthAdjust="spacing" textLength="45" x="187.5" y="247.75">HTML</text><!--MD5=[aed5e7c696f5628545a97d7e5ae05de4]
cluster WebSocket--><rect fill="#FFFFFF" filter="url(#fdtj90c6u4jqi)" height="99" style="stroke:#000000;stroke-width:1.5;" width="788" x="296" y="741.7549"/><text fill="#000000" font-family="sans-serif" font-size="14" font-weight="bold" lengthAdjust="spacing" textLength="89" x="645.5" y="756.75">WebSocket</text><ellipse cx="306.9293" cy="401.5407" fill="#FEFECE" filter="url(#fdtj90c6u4jqi)" rx="71.9293" ry="16.7859" style="stroke:#A80036;stroke-width:1.5;"/><text fill="#000000" font-family="sans-serif" font-size="14" lengthAdjust="spacing" textLength="98" x="254.9293" y="405.2883">Trigger Event</text><ellipse cx="338.9088" cy="519.7337" fill="#FEFECE" filter="url(#fdtj90c6u4jqi)" rx="103.4088" ry="23.9788" style="stroke:#A80036;stroke-width:1.5;"/><text fill="#000000" font-family="sans-serif" font-size="14" font-style="italic" lengthAdjust="spacing" textLength="58" x="303.0851" y="512.9324">«Event»</text><text fill="#000000" font-family="sans-serif" font-size="14" lengthAdjust="spacing" textLength="144" x="260.0851" y="529.2293">Notifies Subscribers</text><ellipse cx="459.2487" cy="640.2785" fill="#FEFECE" filter="url(#fdtj90c6u4jqi)" rx="27.7487" ry="14.5236" style="stroke:#A80036;stroke-width:1.5;"/><text fill="#000000" font-family="sans-serif" font-size="14" lengthAdjust="spacing" textLength="23" x="447.7487" y="643.1252">IPC</text><!--MD5=[14533ecc255b3b24a7ab7af6dc19c04d]
entity Kong--><ellipse cx="321" cy="627.0518" fill="#FEFECE" filter="url(#fdtj90c6u4jqi)" rx="4.5" ry="4.5" style="stroke:#A80036;stroke-width:1.5;"/><path d="M308.5,633.5518 L308.5,638.5518 L318,638.5518 L318,640.8091 L308.5,650.3091 L312.7426,654.5518 L321,646.2944 L329.2574,654.5518 L333.5,650.3091 L324,640.8091 L324,638.5518 L333.5,638.5518 L333.5,633.5518 L308.5,633.5518 " fill="#FEFECE" filter="url(#fdtj90c6u4jqi)" style="stroke:#A80036;stroke-width:1.5;"/><text fill="#000000" font-family="sans-serif" font-size="14" lengthAdjust="spacing" textLength="37" x="302.5" y="672.0469">Kong</text><text fill="#000000" font-family="sans-serif" font-size="14" font-style="italic" lengthAdjust="spacing" textLength="63" x="289.5" y="617.75">«WASM»</text><!--MD5=[b126432b5e00bc6f4a80945f06c7117d]
entity Mothra--><ellipse cx="610" cy="627.0518" fill="#FEFECE" filter="url(#fdtj90c6u4jqi)" rx="4.5" ry="4.5" style="stroke:#A80036;stroke-width:1.5;"/><path d="M597.5,633.5518 L597.5,638.5518 L607,638.5518 L607,640.8091 L597.5,650.3091 L601.7426,654.5518 L610,646.2944 L618.2574,654.5518 L622.5,650.3091 L613,640.8091 L613,638.5518 L622.5,638.5518 L622.5,633.5518 L597.5,633.5518 " fill="#FEFECE" filter="url(#fdtj90c6u4jqi)" style="stroke:#A80036;stroke-width:1.5;"/><text fill="#000000" font-family="sans-serif" font-size="14" lengthAdjust="spacing" textLength="51" x="584.5" y="672.0469">Mothra</text><text fill="#000000" font-family="sans-serif" font-size="14" font-style="italic" lengthAdjust="spacing" textLength="89" x="565.5" y="617.75">«JavaScript»</text><ellipse cx="501.8073" cy="286.6163" fill="#FEFECE" filter="url(#fdtj90c6u4jqi)" rx="72.3073" ry="16.8615" style="stroke:#A80036;stroke-width:1.5;"/><text fill="#000000" font-family="sans-serif" font-size="14" lengthAdjust="spacing" textLength="99" x="449.3073" y="290.3639">GET Resource</text><ellipse cx="685.7754" cy="286.81" fill="#FEFECE" filter="url(#fdtj90c6u4jqi)" rx="75.7754" ry="17.5551" style="stroke:#A80036;stroke-width:1.5;"/><text fill="#000000" font-family="sans-serif" font-size="14" lengthAdjust="spacing" textLength="108" x="628.7754" y="290.5575">POST Resource</text><ellipse cx="869.0529" cy="286.9655" fill="#FEFECE" filter="url(#fdtj90c6u4jqi)" rx="71.5529" ry="16.7106" style="stroke:#A80036;stroke-width:1.5;"/><text fill="#000000" font-family="sans-serif" font-size="14" lengthAdjust="spacing" textLength="97" x="817.5529" y="290.713">PUT Resource</text><ellipse cx="1058.212" cy="286.6973" fill="#FEFECE" filter="url(#fdtj90c6u4jqi)" rx="82.712" ry="18.9424" style="stroke:#A80036;stroke-width:1.5;"/><text fill="#000000" font-family="sans-serif" font-size="14" lengthAdjust="spacing" textLength="125" x="995.0208" y="289.7764">DELETE Resource</text><ellipse cx="129.788" cy="286.6125" fill="#FEFECE" filter="url(#fdtj90c6u4jqi)" rx="82.288" ry="18.8576" style="stroke:#A80036;stroke-width:1.5;"/><text fill="#000000" font-family="sans-serif" font-size="14" lengthAdjust="spacing" textLength="124" x="66.9505" y="289.7387">Manipulates DOM</text><ellipse cx="310.2349" cy="286.7019" fill="#FEFECE" filter="url(#fdtj90c6u4jqi)" rx="62.7349" ry="14.947" style="stroke:#A80036;stroke-width:1.5;"/><text fill="#000000" font-family="sans-serif" font-size="14" lengthAdjust="spacing" textLength="72" x="271.2349" y="290.4494">Load DOM</text><ellipse cx="386.9948" cy="800.6538" fill="#FEFECE" filter="url(#fdtj90c6u4jqi)" rx="74.9948" ry="17.399" style="stroke:#A80036;stroke-width:1.5;"/><text fill="#000000" font-family="sans-serif" font-size="14" lengthAdjust="spacing" textLength="106" x="330.9948" y="804.4014">Read Resource</text><ellipse cx="571.2198" cy="800.9988" fill="#FEFECE" filter="url(#fdtj90c6u4jqi)" rx="74.2198" ry="17.244" style="stroke:#A80036;stroke-width:1.5;"/><text fill="#000000" font-family="sans-serif" font-size="14" lengthAdjust="spacing" textLength="104" x="516.2198" y="804.7464">Save Resource</text><ellipse cx="764.9263" cy="800.5401" fill="#FEFECE" filter="url(#fdtj90c6u4jqi)" rx="84.4263" ry="19.2853" style="stroke:#A80036;stroke-width:1.5;"/><text fill="#000000" font-family="sans-serif" font-size="14" lengthAdjust="spacing" textLength="129" x="700.305" y="803.4288">Remove Resource</text><ellipse cx="976.1544" cy="800.8467" fill="#FEFECE" filter="url(#fdtj90c6u4jqi)" rx="91.6544" ry="24.0918" style="stroke:#A80036;stroke-width:1.5;"/><text fill="#000000" font-family="sans-serif" font-size="14" font-style="italic" lengthAdjust="spacing" textLength="58" x="940.7132" y="794.3105">«Event»</text><text fill="#000000" font-family="sans-serif" font-size="14" lengthAdjust="spacing" textLength="125" x="907.2132" y="810.6073">Send Notification</text><!--MD5=[6f93f9dac877e5e25710406a9dbd8f32]
entity WebUser--><ellipse cx="686" cy="54.5518" fill="#FEFECE" filter="url(#fdtj90c6u4jqi)" rx="8" ry="8" style="stroke:#A80036;stroke-width:1.5;"/><path d="M686,62.5518 L686,89.5518 M673,70.5518 L699,70.5518 M686,89.5518 L673,104.5518 M686,89.5518 L699,104.5518 " fill="none" filter="url(#fdtj90c6u4jqi)" style="stroke:#A80036;stroke-width:1.5;"/><text fill="#000000" font-family="sans-serif" font-size="14" lengthAdjust="spacing" textLength="68" x="652" y="123.0469">Web User</text><text fill="#000000" font-family="sans-serif" font-size="14" font-style="italic" lengthAdjust="spacing" textLength="107" x="632.5" y="41.75">«Human / Bot»</text><!--MD5=[4db07f99e8955048a3c239d72e7ca666]
entity Godzilla--><ellipse cx="1230" cy="786.5518" fill="#FEFECE" filter="url(#fdtj90c6u4jqi)" rx="16" ry="16" style="stroke:#A80036;stroke-width:1.5;"/><path d="M1230,806.5518 C1234,806.5518 1237,806.5518 1241,802.5518 C1249,802.5518 1257,810.5518 1257,818.5518 L1257,822.5518 C1257,826.5518 1253,830.5518 1249,830.5518 L1211,830.5518 C1207,830.5518 1203,826.5518 1203,822.5518 L1203,818.5518 C1203,810.5518 1211,802.5518 1219,802.5518 C1223,806.5518 1226,806.5518 1230,806.5518 " fill="#FEFECE" filter="url(#fdtj90c6u4jqi)" style="stroke:#A80036;stroke-width:1.5;"/><text fill="#000000" font-family="sans-serif" font-size="14" lengthAdjust="spacing" textLength="57" x="1201.5" y="845.0469">Godzilla</text><text fill="#000000" font-family="sans-serif" font-size="14" font-style="italic" lengthAdjust="spacing" textLength="65" x="1197.5" y="765.75">«Server»</text><path d="M1298,780.7549 L1298,796.7549 L1262.5,800.7549 L1298,804.7549 L1298,821.0205 A0,0 0 0 0 1298,821.0205 L1482,821.0205 A0,0 0 0 0 1482,821.0205 L1482,790.7549 L1472,780.7549 L1298,780.7549 A0,0 0 0 0 1298,780.7549 " fill="#FBFB77" filter="url(#fdtj90c6u4jqi)" style="stroke:#A80036;stroke-width:1.0;"/><path d="M1472,780.7549 L1472,790.7549 L1482,790.7549 L1472,780.7549 " fill="#FBFB77" style="stroke:#A80036;stroke-width:1.0;"/><text fill="#000000" font-family="sans-serif" font-size="13" lengthAdjust="spacing" textLength="163" x="1304" y="797.8218">Godzilla is Hosted in IIS or</text><text fill="#000000" font-family="sans-serif" font-size="13" lengthAdjust="spacing" textLength="130" x="1304" y="812.9546">another web server.</text><!--MD5=[3c49d45cfee1ff6cb7123f04677f0741]
link WebUser to ManipDom--><path d="M632.214,80.9879 C543.112,86.7669 361.662,107.4899 230,181.7549 C194.058,202.0289 162.962,239.2789 145.36,263.2599 " fill="none" id="WebUser-to-ManipDom" style="stroke:#A80036;stroke-width:2.0;"/><polygon fill="#A80036" points="142.232,267.5759,150.7524,262.636,145.1662,263.5274,144.2748,257.9412,142.232,267.5759" style="stroke:#A80036;stroke-width:2.0;"/><text fill="#000000" font-family="sans-serif" font-size="13" lengthAdjust="spacing" textLength="42" x="277" y="169.8218">Invoke</text><!--MD5=[74a12d23c8efc21c50b9e57bac7d7976]
link WebUser to HttpGet--><path d="M641.503,126.9839 C625.765,144.1809 608.002,163.7499 592,181.7549 C566.274,210.7019 537.021,244.7139 519.036,265.7539 " fill="none" id="WebUser-to-HttpGet" style="stroke:#A80036;stroke-width:2.0;"/><polygon fill="#A80036" points="515.594,269.7839,524.4809,265.5386,518.8415,265.9821,518.398,260.3426,515.594,269.7839" style="stroke:#A80036;stroke-width:2.0;"/><text fill="#000000" font-family="sans-serif" font-size="13" lengthAdjust="spacing" textLength="42" x="614" y="169.8218">Invoke</text><!--MD5=[a5679c780a0c8cd813d38d631eb9b769]
link WebUser to HttpPost--><path d="M686,126.7649 C686,169.8939 686,231.2729 686,263.7049 " fill="none" id="WebUser-to-HttpPost" style="stroke:#A80036;stroke-width:2.0;"/><polygon fill="#A80036" points="686,269.0339,690,260.0339,686,264.0339,682,260.0339,686,269.0339" style="stroke:#A80036;stroke-width:2.0;"/><text fill="#000000" font-family="sans-serif" font-size="13" lengthAdjust="spacing" textLength="42" x="687" y="169.8218">Invoke</text><!--MD5=[4adf040b6235ddf70961b365c5d3360b]
link WebUser to HttpPut--><path d="M730.553,126.9349 C746.296,144.1269 764.048,163.7059 780,181.7549 C805.819,210.9689 835.099,245.4529 852.799,266.4529 " fill="none" id="WebUser-to-HttpPut" style="stroke:#A80036;stroke-width:2.0;"/><polygon fill="#A80036" points="856.18,270.4679,853.4431,261.007,852.9596,266.6431,847.3234,266.1596,856.18,270.4679" style="stroke:#A80036;stroke-width:2.0;"/><text fill="#000000" font-family="sans-serif" font-size="13" lengthAdjust="spacing" textLength="42" x="773" y="169.8218">Invoke</text><!--MD5=[c8b2e3cd731a9cb30a698fba22ffb12a]
link WebUser to HttpDelete--><path d="M739.624,91.4939 C796.98,106.7809 888.996,136.1999 958,181.7549 C992.24,204.3599 1023.61,240.6169 1041.76,263.7999 " fill="none" id="WebUser-to-HttpDelete" style="stroke:#A80036;stroke-width:2.0;"/><polygon fill="#A80036" points="1044.99,267.9699,1042.6445,258.4044,1041.9296,264.0159,1036.3181,263.3011,1044.99,267.9699" style="stroke:#A80036;stroke-width:2.0;"/><text fill="#000000" font-family="sans-serif" font-size="13" lengthAdjust="spacing" textLength="42" x="945" y="169.8218">Invoke</text><!--MD5=[0c86d43f3d342422c7f0385c9472dd83]
link ReadRes to Godzilla--><path d="M399.882,783.4734 C418.305,760.3739 454.618,720.5149 496.5,704.7549 C555.776,682.4499 1005.39,688.1389 1066.5,704.7549 C1113.92,717.6479 1161.64,748.1539 1193.18,771.3439 " fill="none" id="ReadRes-to-Godzilla" style="stroke:#A80036;stroke-width:2.0;"/><polygon fill="#A80036" points="1197.33,774.4209,1192.4942,765.841,1193.3175,771.4376,1187.7209,772.2609,1197.33,774.4209" style="stroke:#A80036;stroke-width:2.0;"/><!--MD5=[7f75b4e6423afd5ab3b57240e6a1138a]
link SaveRes to Godzilla--><path d="M583.571,783.8633 C601.895,760.8249 638.381,720.6039 680.5,704.7549 C760.782,674.5459 983.727,682.2509 1066.5,704.7549 C1113.92,717.6479 1161.64,748.1539 1193.18,771.3439 " fill="none" id="SaveRes-to-Godzilla" style="stroke:#A80036;stroke-width:2.0;"/><polygon fill="#A80036" points="1197.33,774.4209,1192.4942,765.841,1193.3175,771.4376,1187.7209,772.2609,1197.33,774.4209" style="stroke:#A80036;stroke-width:2.0;"/><!--MD5=[ac63ffc9e41afcfcec8629973f872c85]
link RemoveRes to Godzilla--><path d="M781.209,781.438 C802.221,758.0629 841.323,719.9499 884.5,704.7549 C960.802,677.9019 988.445,683.5329 1066.5,704.7549 C1113.92,717.6479 1161.64,748.1539 1193.18,771.3439 " fill="none" id="RemoveRes-to-Godzilla" style="stroke:#A80036;stroke-width:2.0;"/><polygon fill="#A80036" points="1197.33,774.4209,1192.4942,765.841,1193.3175,771.4376,1187.7209,772.2609,1197.33,774.4209" style="stroke:#A80036;stroke-width:2.0;"/><!--MD5=[9f07e4d88a2cc3b3e1c006c1c62a2590]
link Godzilla to Notification--><path d="M1197.37,800.7549 C1155.86,800.7549 1114.35,800.7549 1072.84,800.7549 " fill="none" id="Godzilla-to-Notification" style="stroke:#A80036;stroke-width:2.0;"/><polygon fill="#A80036" points="1067.78,800.7549,1076.78,804.7549,1072.78,800.7549,1076.78,796.7549,1067.78,800.7549" style="stroke:#A80036;stroke-width:2.0;"/><!--MD5=[a159694e54d085d715b9630894b51f2b]
link HttpGet to Godzilla--><path d="M527.388,302.9029 C544.893,312.5049 569.055,324.1389 592,329.7549 C611.877,334.6199 759.576,325.5479 776,337.7549 C799.804,355.4459 798,371.0969 798,400.7549 C798,400.7549 798,400.7549 798,641.2549 C798,742.6149 912.982,696.9419 1011,722.7549 C1042.73,731.1109 1052.53,724.4649 1084,733.7549 C1122.49,745.1179 1163.97,764.6379 1192.85,779.5099 " fill="none" id="HttpGet-to-Godzilla" style="stroke:#A80036;stroke-width:2.0;"/><polygon fill="#A80036" points="1197.37,781.8546,1191.2195,774.1623,1192.9306,779.5542,1187.5388,781.2653,1197.37,781.8546" style="stroke:#A80036;stroke-width:2.0;"/><!--MD5=[521a3cbd9f29b42a635fb63e3a54e4ac]
link HttpPost to Godzilla--><path d="M715.348,303.0669 C733.54,311.9989 757.631,322.8349 780,329.7549 C798.988,335.6289 805.277,331.0819 824,337.7549 C878.529,357.1889 938,342.8659 938,400.7549 C938,400.7549 938,400.7549 938,641.2549 C938,706.8329 1003.65,690.9499 1061,722.7549 C1067.2,726.1939 1144.72,761.2819 1192.59,782.888 " fill="none" id="HttpPost-to-Godzilla" style="stroke:#A80036;stroke-width:2.0;"/><polygon fill="#A80036" points="1197.41,785.0645,1190.8526,777.716,1192.8528,783.0074,1187.5613,785.0076,1197.41,785.0645" style="stroke:#A80036;stroke-width:2.0;"/><!--MD5=[40e93637284c2a027d780619d20e30be]
link HttpPut to Godzilla--><path d="M899.377,301.8549 C918.459,311.1669 943.292,324.1299 964,337.7549 C1001.23,362.2489 1042,356.1929 1042,400.7549 C1042,400.7549 1042,400.7549 1042,641.2549 C1042,719.1619 1137.54,766.5399 1192.4,787.3253 " fill="none" id="HttpPut-to-Godzilla" style="stroke:#A80036;stroke-width:2.0;"/><polygon fill="#A80036" points="1197.25,789.1347,1190.2094,782.2477,1192.5638,787.3914,1187.4201,789.7457,1197.25,789.1347" style="stroke:#A80036;stroke-width:2.0;"/><!--MD5=[3fcdb31ae4b80ce79bbfbd8aa855b6b2]
link HttpDelete to Godzilla--><path d="M1082.87,305.0189 C1108.27,324.8929 1144,360.0769 1144,400.7549 C1144,400.7549 1144,400.7549 1144,641.2549 C1144,685.8979 1170.68,729.9849 1194.32,760.2839 " fill="none" id="HttpDelete-to-Godzilla" style="stroke:#A80036;stroke-width:2.0;"/><polygon fill="#A80036" points="1197.49,764.2809,1195.0507,754.7389,1194.3909,760.3571,1188.7727,759.6974,1197.49,764.2809" style="stroke:#A80036;stroke-width:2.0;"/><!--MD5=[b06d5c60cca5596a02023fcd25fc65bf]
reverse link TriggerEvent to Notify--><path d="M295.316,438.3919 C293.966,447.4729 293.989,457.1069 297,465.7549 C300.899,476.9529 308.259,487.5649 315.742,496.3099 " fill="none" id="TriggerEvent-backto-Notify" style="stroke:#A80036;stroke-width:1.0;stroke-dasharray:7.0,7.0;"/><polygon fill="none" points="288.541,436.6289,300.194,418.9309,302.121,440.0329,288.541,436.6289" style="stroke:#A80036;stroke-width:1.0;"/><text fill="#000000" font-family="sans-serif" font-size="13" lengthAdjust="spacing" textLength="40" x="298" y="461.8218">Inherit</text><!--MD5=[b06d5c60cca5596a02023fcd25fc65bf]
reverse link TriggerEvent to Notify--><path d="M335.936,434.4339 C338.811,438.9819 341.294,443.8059 343,448.7549 C348.198,463.8299 347.028,481.8069 344.647,495.7679 " fill="none" id="TriggerEvent-backto-Notify-1" style="stroke:#A80036;stroke-width:1.0;stroke-dasharray:7.0,7.0;"/><polygon fill="none" points="330.38,438.6929,323.705,418.5829,341.465,430.1409,330.38,438.6929" style="stroke:#A80036;stroke-width:1.0;"/><text fill="#000000" font-family="sans-serif" font-size="13" lengthAdjust="spacing" textLength="40" x="348" y="461.8218">Inherit</text><!--MD5=[c2bc5cc8916451ea42f21ee5c78bdb46]
reverse link ManipDom to TriggerEvent--><path d="M144.43,324.1669 C150.324,335.2589 158.122,346.6489 168,354.7549 C191.088,373.7029 222.264,384.9479 249.241,391.5689 " fill="none" id="ManipDom-backto-TriggerEvent" style="stroke:#A80036;stroke-width:1.0;stroke-dasharray:7.0,7.0;"/><polygon fill="none" points="138.009,326.9569,136.056,305.8579,150.74,321.1349,138.009,326.9569" style="stroke:#A80036;stroke-width:1.0;"/><text fill="#000000" font-family="sans-serif" font-size="13" lengthAdjust="spacing" textLength="40" x="169" y="350.8218">Inherit</text><!--MD5=[c2bc5cc8916451ea42f21ee5c78bdb46]
reverse link ManipDom to TriggerEvent--><path d="M176.945,315.0419 C189.1,322.2859 202.111,330.1989 214,337.7549 C238.688,353.4459 266.374,372.3779 285.068,385.3669 " fill="none" id="ManipDom-backto-TriggerEvent-1" style="stroke:#A80036;stroke-width:1.0;stroke-dasharray:7.0,7.0;"/><polygon fill="none" points="173.078,320.8879,159.411,304.6949,180.194,308.8309,173.078,320.8879" style="stroke:#A80036;stroke-width:1.0;"/><text fill="#000000" font-family="sans-serif" font-size="13" lengthAdjust="spacing" textLength="40" x="241" y="350.8218">Inherit</text><!--MD5=[e710920266c2bed90c6e50ddd9817ec3]
reverse link LoadDom to TriggerEvent--><path d="M309.088,322.1209 C308.535,342.9419 307.856,368.5269 307.425,384.7409 " fill="none" id="LoadDom-backto-TriggerEvent" style="stroke:#A80036;stroke-width:1.0;stroke-dasharray:7.0,7.0;"/><polygon fill="none" points="302.092,321.8739,309.62,302.0669,316.087,322.2449,302.092,321.8739" style="stroke:#A80036;stroke-width:1.0;"/><text fill="#000000" font-family="sans-serif" font-size="13" lengthAdjust="spacing" textLength="40" x="310" y="350.8218">Inherit</text><!--MD5=[e710920266c2bed90c6e50ddd9817ec3]
reverse link LoadDom to TriggerEvent--><path d="M346.084,314.2719 C357.426,325.9809 365.493,340.3429 359,354.7549 C353.307,367.3929 342.235,377.9589 331.766,385.7649 " fill="none" id="LoadDom-backto-TriggerEvent-1" style="stroke:#A80036;stroke-width:1.0;stroke-dasharray:7.0,7.0;"/><polygon fill="none" points="341.356,319.4379,330.816,301.0549,350.519,308.8529,341.356,319.4379" style="stroke:#A80036;stroke-width:1.0;"/><text fill="#000000" font-family="sans-serif" font-size="13" lengthAdjust="spacing" textLength="40" x="363" y="350.8218">Inherit</text><!--MD5=[1e082b2a7bc28aa53c37d162d4628316]
link Notify to Mothra--><path d="M385.895,541.2609 C434.765,562.6299 511.019,595.9729 560.748,617.7189 " fill="none" id="Notify-to-Mothra" style="stroke:#A80036;stroke-width:2.0;"/><polygon fill="#A80036" points="565.476,619.7859,558.8337,612.514,560.8952,617.7819,555.6273,619.8433,565.476,619.7859" style="stroke:#A80036;stroke-width:2.0;"/><!--MD5=[39543c2e45b3e613923902c0bcec49bb]
reverse link ManipDom to Mothra--><path d="M115.623,310.2639 C97.311,340.3989 66.6464,396.1729 55,448.7549 C41.064,511.6729 131.521,573.9179 133,574.7549 C204.978,615.5069 422.897,588.5109 504,604.7549 C524.589,608.8789 546.766,615.7039 565.487,622.2009 " fill="none" id="ManipDom-backto-Mothra" style="stroke:#A80036;stroke-width:2.0;"/><polygon fill="#A80036" points="118.451,305.6519,110.3374,311.2349,115.8381,309.9148,117.1581,315.4155,118.451,305.6519" style="stroke:#A80036;stroke-width:2.0;"/><text fill="#000000" font-family="sans-serif" font-size="13" lengthAdjust="spacing" textLength="42" x="56" y="461.8218">Invoke</text><!--MD5=[ce94d249eabf013bb05ab7f48be137d6]
link Mothra to ManipDom--><path d="M565.438,623.6049 C546.613,617.2939 524.373,610.2269 504,604.7549 C378.479,571.0409 316.693,628.3239 218,543.7549 C147.069,482.9749 133.233,362.2589 130.593,311.3129 " fill="none" id="Mothra-to-ManipDom" style="stroke:#A80036;stroke-width:2.0;"/><polygon fill="#A80036" points="130.346,306.0279,126.7695,315.2044,130.5789,311.0225,134.7608,314.8318,130.346,306.0279" style="stroke:#A80036;stroke-width:2.0;"/><text fill="#000000" font-family="sans-serif" font-size="13" lengthAdjust="spacing" textLength="42" x="164" y="461.8218">Invoke</text><!--MD5=[0a72d8cd73cac345273798b02d5ea426]
reverse link LoadDom to Mothra--><path d="M349.65,301.3889 C369.864,309.6989 393.925,321.8139 412,337.7549 C501.001,416.2479 566.732,543.7399 594.876,604.6799 " fill="none" id="LoadDom-backto-Mothra" style="stroke:#A80036;stroke-width:2.0;"/><polygon fill="#A80036" points="344.868,299.4639,351.7226,306.536,349.5061,301.3314,354.7107,299.115,344.868,299.4639" style="stroke:#A80036;stroke-width:2.0;"/><text fill="#000000" font-family="sans-serif" font-size="13" lengthAdjust="spacing" textLength="42" x="520" y="461.8218">Invoke</text><!--MD5=[9a3db1217df5c3e2b09e64a1ddc843a4]
link Mothra to LoadDom--><path d="M608.93,604.7099 C606.239,564.4579 597.149,497.2819 567,448.7549 C525.644,382.1899 497.301,377.9019 430,337.7549 C422.287,333.1539 377.774,314.9449 345.205,301.8279 " fill="none" id="Mothra-to-LoadDom" style="stroke:#A80036;stroke-width:2.0;"/><polygon fill="#A80036" points="340.492,299.9319,347.3492,307.0014,345.1308,301.7977,350.3345,299.5793,340.492,299.9319" style="stroke:#A80036;stroke-width:2.0;"/><text fill="#000000" font-family="sans-serif" font-size="13" lengthAdjust="spacing" textLength="42" x="578" y="461.8218">Invoke</text><!--MD5=[2e05c9df71aa8064ffd3479fa3a06e59]
link Mothra to ReadRes--><path d="M565.376,672.6399 C540.017,690.5069 507.694,713.3329 479,733.7549 C456.854,749.5169 431.79,767.5079 413.421,780.7209 " fill="none" id="Mothra-to-ReadRes" style="stroke:#A80036;stroke-width:2.0;"/><polygon fill="#A80036" points="408.902,783.973,418.5439,781.9644,412.9609,781.0532,413.8722,775.4702,408.902,783.973" style="stroke:#A80036;stroke-width:2.0;"/><text fill="#000000" font-family="sans-serif" font-size="13" lengthAdjust="spacing" textLength="42" x="516" y="718.8218">Invoke</text><!--MD5=[2a9208e5388bb13a4e2443bbe2e44300]
link Mothra to SaveRes--><path d="M601.441,676.0379 C593.748,707.3059 582.694,752.2289 576.24,778.4609 " fill="none" id="Mothra-to-SaveRes" style="stroke:#A80036;stroke-width:2.0;"/><polygon fill="#A80036" points="575.012,783.4486,581.0485,775.6665,576.2079,778.5937,573.2806,773.7531,575.012,783.4486" style="stroke:#A80036;stroke-width:2.0;"/><text fill="#000000" font-family="sans-serif" font-size="13" lengthAdjust="spacing" textLength="42" x="595" y="718.8218">Invoke</text><!--MD5=[ef095169fa6d8e8f5e034ce8655fb2ee]
link Mothra to RemoveRes--><path d="M644.015,676.0379 C674.253,706.9589 717.549,751.2319 743.314,777.5799 " fill="none" id="Mothra-to-RemoveRes" style="stroke:#A80036;stroke-width:2.0;"/><polygon fill="#A80036" points="746.985,781.3332,743.5518,772.1021,743.489,777.7586,737.8325,777.6957,746.985,781.3332" style="stroke:#A80036;stroke-width:2.0;"/><text fill="#000000" font-family="sans-serif" font-size="13" lengthAdjust="spacing" textLength="42" x="688" y="718.8218">Invoke</text><!--MD5=[7836a74315b01d396d87b8ed5b89f6e9]
reverse link Mothra to Notification--><path d="M659.34,665.8739 C706.824,689.5289 771.903,721.8349 775,722.7549 C814.474,734.4869 828.065,720.3439 867,733.7549 C896.492,743.9139 926.563,762.9039 947.628,777.9149 " fill="none" id="Mothra-backto-Notification" style="stroke:#A80036;stroke-width:2.0;"/><polygon fill="#A80036" points="654.803,663.6129,661.0747,671.2067,659.2783,665.8427,664.6423,664.0463,654.803,663.6129" style="stroke:#A80036;stroke-width:2.0;"/><!--MD5=[6fc908dc2e2ef5fb91fae92dafb26d4d]
reverse link Kong to IPC--><path d="M357.781,640.2549 C380.845,640.2549 410.104,640.2549 431.225,640.2549 " fill="none" id="Kong-backto-IPC" style="stroke:#A80036;stroke-width:2.0;"/><polygon fill="#A80036" points="352.66,640.2549,361.66,644.2549,357.66,640.2549,361.66,636.2549,352.66,640.2549" style="stroke:#A80036;stroke-width:2.0;"/><text fill="#000000" font-family="sans-serif" font-size="13" lengthAdjust="spacing" textLength="42" x="371" y="633.3218">Invoke</text><!--MD5=[4d0174a09023d170815afd137c40ca71]
reverse link IPC to Kong--><path d="M434.979,653.1409 C428.366,656.0689 421.064,658.7559 414,660.2549 C394.87,664.3149 389.19,664.0199 370,660.2549 C364.23,659.1229 358.282,657.3069 352.606,655.2189 " fill="none" id="IPC-backto-Kong" style="stroke:#A80036;stroke-width:2.0;"/><polygon fill="#A80036" points="439.887,650.8699,430.0393,651.019,435.3492,652.9695,433.3987,658.2795,439.887,650.8699" style="stroke:#A80036;stroke-width:2.0;"/><text fill="#000000" font-family="sans-serif" font-size="13" lengthAdjust="spacing" textLength="42" x="371" y="656.3218">Invoke</text><!--MD5=[cf0a159ef225dc2434f4a2c5f4859b87]
reverse link IPC to Mothra--><path d="M491.732,640.2549 C513.253,640.2549 541.692,640.2549 565.289,640.2549 " fill="none" id="IPC-backto-Mothra" style="stroke:#A80036;stroke-width:2.0;"/><polygon fill="#A80036" points="486.696,640.2549,495.696,644.2549,491.696,640.2549,495.696,636.2549,486.696,640.2549" style="stroke:#A80036;stroke-width:2.0;"/><text fill="#000000" font-family="sans-serif" font-size="13" lengthAdjust="spacing" textLength="42" x="505" y="633.3218">Invoke</text><!--MD5=[17408d2c130d2b929d9aedd2ea878d6c]
link IPC to Mothra--><path d="M478.113,650.8699 C485.896,654.6209 495.135,658.3739 504,660.2549 C522.336,664.1459 542.537,661.9369 560.343,657.8039 " fill="none" id="IPC-to-Mothra" style="stroke:#A80036;stroke-width:2.0;"/><polygon fill="#A80036" points="565.298,656.5899,555.6046,654.8471,560.4417,657.78,557.5088,662.6172,565.298,656.5899" style="stroke:#A80036;stroke-width:2.0;"/><text fill="#000000" font-family="sans-serif" font-size="13" lengthAdjust="spacing" textLength="42" x="505" y="656.3218">Invoke</text><!--MD5=[e782e3ef111437fd477728de8e747c22]
link Notify to Kong--><path d="M335.487,543.8839 C333.093,559.6449 329.861,580.9209 327.057,599.3779 " fill="none" id="Notify-to-Kong" style="stroke:#A80036;stroke-width:2.0;"/><polygon fill="#A80036" points="326.279,604.5019,331.5839,596.2038,327.0291,599.5585,323.6744,595.0037,326.279,604.5019" style="stroke:#A80036;stroke-width:2.0;"/><!--MD5=[ba795e4d4029b4086ac1f6c76d333600]
link Kong to ReadRes--><path d="M289.491,664.0769 C271.532,680.0359 254.664,702.1049 266,722.7549 C282.084,752.0549 314.569,771.7979 341.833,783.9517 " fill="none" id="Kong-to-ReadRes" style="stroke:#A80036;stroke-width:2.0;"/><polygon fill="#A80036" points="346.508,785.9852,339.8503,778.7274,341.9229,783.9909,336.6595,786.0635,346.508,785.9852" style="stroke:#A80036;stroke-width:2.0;"/><text fill="#000000" font-family="sans-serif" font-size="13" lengthAdjust="spacing" textLength="42" x="267" y="718.8218">Invoke</text><!--MD5=[81c84a45b4a990b80a2fa608686f42ef]
link Kong to SaveRes--><path d="M324.684,676.0849 C328.345,692.8419 335.611,711.6559 350,722.7549 C372.781,740.3269 452.01,723.7899 479,733.7549 C506.773,744.0089 533.71,765.0419 551.182,780.6209 " fill="none" id="Kong-to-SaveRes" style="stroke:#A80036;stroke-width:2.0;"/><polygon fill="#A80036" points="554.98,784.0554,550.9865,775.0525,551.2711,780.7022,545.6214,780.9868,554.98,784.0554" style="stroke:#A80036;stroke-width:2.0;"/><text fill="#000000" font-family="sans-serif" font-size="13" lengthAdjust="spacing" textLength="42" x="351" y="718.8218">Invoke</text><!--MD5=[f61a8e11101a70dce43fbfcdbce8b024]
link Kong to RemoveRes--><path d="M352.685,671.8499 C373.879,690.2239 403.406,712.0519 434,722.7549 C481.88,739.5049 613.677,718.3269 662,733.7549 C691.155,743.0629 720.123,762.8039 739.877,778.2839 " fill="none" id="Kong-to-RemoveRes" style="stroke:#A80036;stroke-width:2.0;"/><polygon fill="#A80036" points="744.197,781.7167,739.6387,772.9862,740.2822,778.6063,734.6621,779.2498,744.197,781.7167" style="stroke:#A80036;stroke-width:2.0;"/><text fill="#000000" font-family="sans-serif" font-size="13" lengthAdjust="spacing" textLength="42" x="435" y="718.8218">Invoke</text><!--MD5=[ea3fa6f0bf02731175c51c5e7f368c6f]
reverse link Kong to Notification--><path d="M357.561,655.2149 C403.504,672.8579 477.002,701.4579 482,705.7549 C488.647,711.4689 484.455,718.2919 492,722.7549 C527.877,743.9789 827.019,721.9589 867,733.7549 C897.342,742.7069 927.797,762.2519 948.772,777.7619 " fill="none" id="Kong-backto-Notification" style="stroke:#A80036;stroke-width:2.0;"/><polygon fill="#A80036" points="352.653,653.3319,359.6226,660.2906,357.3211,655.1231,362.4886,652.8216,352.653,653.3319" style="stroke:#A80036;stroke-width:2.0;"/><!--MD5=[8b586dcd7610fd532877f1fc388a515f]
@startuml
title Web User Use Cases
left to right direction
actor :Web User: << Human / Bot >> as WebUser

rectangle Browser{
    rectangle HTTP {
        usecase (GET Resource) as HttpGet
        usecase (POST Resource) as HttpPost
        usecase (PUT Resource) as HttpPut
        usecase (DELETE Resource) as HttpDelete
    }

    rectangle HTML {
        usecase (Manipulates DOM) as ManipDom
    }
}

WebUser =d=> ManipDom : Invoke

WebUser =r=> HttpGet : Invoke
WebUser =r=> HttpPost : Invoke
WebUser =r=> HttpPut : Invoke
WebUser =r=> HttpDelete : Invoke


title Godzilla Use Cases
'https://plantuml.com/use-case-diagram
left to right direction

skinparam actorStyle awesome

actor Godzilla << Server >>
note bottom of Godzilla
    Godzilla is Hosted in IIS or
    another web server.
end note

rectangle Browser{
    rectangle HTTP {
        usecase (GET Resource) as HttpGet
        usecase (POST Resource) as HttpPost
        usecase (PUT Resource) as HttpPut
        usecase (DELETE Resource) as HttpDelete
    }

    rectangle WebSocket {
        usecase (Read Resource) as ReadRes
        usecase (Save Resource) as SaveRes
        usecase (Remove Resource) as RemoveRes
        usecase (Send Notification) << Event >> as Notification
    }
}

Godzilla <=l= ReadRes
Godzilla <=l= SaveRes
Godzilla <=l= RemoveRes

Godzilla =d=> Notification

Godzilla <=u= HttpGet
Godzilla <=u= HttpPost
Godzilla <=u= HttpPut
Godzilla <=u= HttpDelete


title Mothra Uses Cases
top to bottom direction
skinparam actorStyle hollow

rectangle Browser {
    rectangle HTML {
        usecase (Load DOM) as LoadDom
        usecase (Manipulates DOM) as ManipDom
    }

    rectangle WebSocket {
        usecase (Read Resource) as ReadRes
        usecase (Save Resource) as SaveRes
        usecase (Remove Resource) as RemoveRes
        usecase (Send Notification) << Event >> as Notification
    }

    usecase (Trigger Event) as TriggerEvent
    usecase (Notifies Subscribers) << Event >> as Notify
    usecase (IPC)

    TriggerEvent <|.d. Notify : Inherit
    TriggerEvent .u.|> ManipDom : Inherit
    TriggerEvent .u.|> LoadDom : Inherit

    actor Kong << WASM >> as Kong
    actor Mothra << JavaScript >> as Mothra

    Notify =d=> Mothra 

    Mothra =u=> ManipDom : Invoke
    Mothra =u=> LoadDom : Invoke

    Mothra =d=> ReadRes : Invoke
    Mothra =d=> SaveRes : Invoke
    Mothra =d=> RemoveRes : Invoke

    Mothra <=d= Notification

    Kong <=r= IPC : Invoke
    IPC <=r= Mothra : Invoke
}


title Kong Use Cases
top to bottom direction
skinparam actorStyle hollow

rectangle Browser {
    rectangle HTML {
        usecase (Load DOM) as LoadDom
        usecase (Manipulates DOM) as ManipDom
    }

    rectangle WebSocket {
        usecase (Read Resource) as ReadRes
        usecase (Save Resource) as SaveRes
        usecase (Remove Resource) as RemoveRes
        usecase (Send Notification) << Event >> as Notification
    }

    usecase (Trigger Event) as TriggerEvent
    usecase (Notifies Subscribers) << Event >> as Notify
    usecase (IPC)

    TriggerEvent <|.d. Notify : Inherit
    TriggerEvent .u.|> ManipDom : Inherit
    TriggerEvent .u.|> LoadDom : Inherit

    actor Kong << WASM >> as Kong
    actor Mothra << JavaScript >> as Mothra

    Notify ==> Kong

    Kong =d=> ReadRes : Invoke
    Kong =d=> SaveRes : Invoke
    Kong =d=> RemoveRes : Invoke

    Kong <=d= Notification

    Kong =l=> IPC : Invoke
    IPC =r=> Mothra : Invoke

    Mothra =d=> ManipDom : Invoke
    Mothra =d=> LoadDom : Invoke
}
@enduml

@startuml
title Web User Use Cases
left to right direction
actor :Web User: << Human / Bot >> as WebUser

rectangle Browser{
    rectangle HTTP {
        usecase (GET Resource) as HttpGet
        usecase (POST Resource) as HttpPost
        usecase (PUT Resource) as HttpPut
        usecase (DELETE Resource) as HttpDelete
    }

    rectangle HTML {
        usecase (Manipulates DOM) as ManipDom
    }
}

WebUser =d=> ManipDom : Invoke

WebUser =r=> HttpGet : Invoke
WebUser =r=> HttpPost : Invoke
WebUser =r=> HttpPut : Invoke
WebUser =r=> HttpDelete : Invoke


title Godzilla Use Cases
left to right direction

skinparam actorStyle awesome

actor Godzilla << Server >>
note bottom of Godzilla
    Godzilla is Hosted in IIS or
    another web server.
end note

rectangle Browser{
    rectangle HTTP {
        usecase (GET Resource) as HttpGet
        usecase (POST Resource) as HttpPost
        usecase (PUT Resource) as HttpPut
        usecase (DELETE Resource) as HttpDelete
    }

    rectangle WebSocket {
        usecase (Read Resource) as ReadRes
        usecase (Save Resource) as SaveRes
        usecase (Remove Resource) as RemoveRes
        usecase (Send Notification) << Event >> as Notification
    }
}

Godzilla <=l= ReadRes
Godzilla <=l= SaveRes
Godzilla <=l= RemoveRes

Godzilla =d=> Notification

Godzilla <=u= HttpGet
Godzilla <=u= HttpPost
Godzilla <=u= HttpPut
Godzilla <=u= HttpDelete


title Mothra Uses Cases
top to bottom direction
skinparam actorStyle hollow

rectangle Browser {
    rectangle HTML {
        usecase (Load DOM) as LoadDom
        usecase (Manipulates DOM) as ManipDom
    }

    rectangle WebSocket {
        usecase (Read Resource) as ReadRes
        usecase (Save Resource) as SaveRes
        usecase (Remove Resource) as RemoveRes
        usecase (Send Notification) << Event >> as Notification
    }

    usecase (Trigger Event) as TriggerEvent
    usecase (Notifies Subscribers) << Event >> as Notify
    usecase (IPC)

    TriggerEvent <|.d. Notify : Inherit
    TriggerEvent .u.|> ManipDom : Inherit
    TriggerEvent .u.|> LoadDom : Inherit

    actor Kong << WASM >> as Kong
    actor Mothra << JavaScript >> as Mothra

    Notify =d=> Mothra 

    Mothra =u=> ManipDom : Invoke
    Mothra =u=> LoadDom : Invoke

    Mothra =d=> ReadRes : Invoke
    Mothra =d=> SaveRes : Invoke
    Mothra =d=> RemoveRes : Invoke

    Mothra <=d= Notification

    Kong <=r= IPC : Invoke
    IPC <=r= Mothra : Invoke
}


title Kong Use Cases
top to bottom direction
skinparam actorStyle hollow

rectangle Browser {
    rectangle HTML {
        usecase (Load DOM) as LoadDom
        usecase (Manipulates DOM) as ManipDom
    }

    rectangle WebSocket {
        usecase (Read Resource) as ReadRes
        usecase (Save Resource) as SaveRes
        usecase (Remove Resource) as RemoveRes
        usecase (Send Notification) << Event >> as Notification
    }

    usecase (Trigger Event) as TriggerEvent
    usecase (Notifies Subscribers) << Event >> as Notify
    usecase (IPC)

    TriggerEvent <|.d. Notify : Inherit
    TriggerEvent .u.|> ManipDom : Inherit
    TriggerEvent .u.|> LoadDom : Inherit

    actor Kong << WASM >> as Kong
    actor Mothra << JavaScript >> as Mothra

    Notify ==> Kong

    Kong =d=> ReadRes : Invoke
    Kong =d=> SaveRes : Invoke
    Kong =d=> RemoveRes : Invoke

    Kong <=d= Notification

    Kong =l=> IPC : Invoke
    IPC =r=> Mothra : Invoke

    Mothra =d=> ManipDom : Invoke
    Mothra =d=> LoadDom : Invoke
}
@enduml

PlantUML version 1.2021.4beta3(Unknown compile time)
(GPL source distribution)
Java Runtime: Java(TM) SE Runtime Environment
JVM: Java HotSpot(TM) 64-Bit Server VM
Default Encoding: UTF-8
Language: en
Country: US
--></g></svg>