<?xml version="1.0" encoding="UTF-8" standalone="no"?><svg xmlns="http://www.w3.org/2000/svg" xmlns:xlink="http://www.w3.org/1999/xlink" contentScriptType="application/ecmascript" contentStyleType="text/css" height="741px" preserveAspectRatio="none" style="width:483px;height:741px;" version="1.1" viewBox="0 0 483 741" width="483px" zoomAndPan="magnify"><defs><filter height="300%" id="fs38d6u45sdie" width="300%" x="-1" y="-1"><feGaussianBlur result="blurOut" stdDeviation="2.0"/><feColorMatrix in="blurOut" result="blurOut2" type="matrix" values="0 0 0 0 0 0 0 0 0 0 0 0 0 0 0 0 0 0 .4 0"/><feOffset dx="4.0" dy="4.0" in="blurOut2" result="blurOut3"/><feBlend in="SourceGraphic" in2="blurOut3" mode="normal"/></filter></defs><g><text fill="#000000" font-family="sans-serif" font-size="18" lengthAdjust="spacing" textLength="173" x="147.5" y="16.708">Godzilla Use Cases</text><!--MD5=[8699c0c8e953ee53654a072cc875bfb4]
cluster Browser--><rect fill="#FFFFFF" filter="url(#fs38d6u45sdie)" height="702" style="stroke:#000000;stroke-width:1.5;" width="263" x="7" y="27.9531"/><text fill="#000000" font-family="sans-serif" font-size="14" font-weight="bold" lengthAdjust="spacing" textLength="66" x="105.5" y="42.9482">Browser</text><!--MD5=[e6e61d846f7ebc290f4b7ed94825158d]
cluster HTTP--><rect fill="#FFFFFF" filter="url(#fs38d6u45sdie)" height="297" style="stroke:#000000;stroke-width:1.5;" width="197" x="40" y="70.9531"/><text fill="#000000" font-family="sans-serif" font-size="14" font-weight="bold" lengthAdjust="spacing" textLength="43" x="117" y="85.9482">HTTP</text><!--MD5=[aed5e7c696f5628545a97d7e5ae05de4]
cluster WebSocket--><rect fill="#FFFFFF" filter="url(#fs38d6u45sdie)" height="314" style="stroke:#000000;stroke-width:1.5;" width="215" x="31" y="391.9531"/><text fill="#000000" font-family="sans-serif" font-size="14" font-weight="bold" lengthAdjust="spacing" textLength="89" x="94" y="406.9482">WebSocket</text><ellipse cx="138.3073" cy="334.8146" fill="#FEFECE" filter="url(#fs38d6u45sdie)" rx="72.3073" ry="16.8615" style="stroke:#A80036;stroke-width:1.5;"/><text fill="#000000" font-family="sans-serif" font-size="14" lengthAdjust="spacing" textLength="99" x="85.8073" y="338.5621">GET Resource</text><ellipse cx="138.2754" cy="265.0082" fill="#FEFECE" filter="url(#fs38d6u45sdie)" rx="75.7754" ry="17.5551" style="stroke:#A80036;stroke-width:1.5;"/><text fill="#000000" font-family="sans-serif" font-size="14" lengthAdjust="spacing" textLength="108" x="81.2754" y="268.7558">POST Resource</text><ellipse cx="138.5529" cy="196.1637" fill="#FEFECE" filter="url(#fs38d6u45sdie)" rx="71.5529" ry="16.7106" style="stroke:#A80036;stroke-width:1.5;"/><text fill="#000000" font-family="sans-serif" font-size="14" lengthAdjust="spacing" textLength="97" x="87.0529" y="199.9113">PUT Resource</text><ellipse cx="138.712" cy="124.8955" fill="#FEFECE" filter="url(#fs38d6u45sdie)" rx="82.712" ry="18.9424" style="stroke:#A80036;stroke-width:1.5;"/><text fill="#000000" font-family="sans-serif" font-size="14" lengthAdjust="spacing" textLength="125" x="75.5208" y="127.9746">DELETE Resource</text><ellipse cx="138.4948" cy="444.8521" fill="#FEFECE" filter="url(#fs38d6u45sdie)" rx="74.9948" ry="17.399" style="stroke:#A80036;stroke-width:1.5;"/><text fill="#000000" font-family="sans-serif" font-size="14" lengthAdjust="spacing" textLength="106" x="82.4948" y="448.5996">Read Resource</text><ellipse cx="138.7198" cy="515.1971" fill="#FEFECE" filter="url(#fs38d6u45sdie)" rx="74.2198" ry="17.244" style="stroke:#A80036;stroke-width:1.5;"/><text fill="#000000" font-family="sans-serif" font-size="14" lengthAdjust="spacing" textLength="104" x="83.7198" y="518.9446">Save Resource</text><ellipse cx="138.4263" cy="586.7384" fill="#FEFECE" filter="url(#fs38d6u45sdie)" rx="84.4263" ry="19.2853" style="stroke:#A80036;stroke-width:1.5;"/><text fill="#000000" font-family="sans-serif" font-size="14" lengthAdjust="spacing" textLength="129" x="73.805" y="589.627">Remove Resource</text><ellipse cx="138.6544" cy="666.0449" fill="#FEFECE" filter="url(#fs38d6u45sdie)" rx="91.6544" ry="24.0918" style="stroke:#A80036;stroke-width:1.5;"/><text fill="#000000" font-family="sans-serif" font-size="14" font-style="italic" lengthAdjust="spacing" textLength="58" x="103.2132" y="659.5087">«Event»</text><text fill="#000000" font-family="sans-serif" font-size="14" lengthAdjust="spacing" textLength="125" x="69.7132" y="675.8056">Send Notification</text><!--MD5=[4db07f99e8955048a3c239d72e7ca666]
entity Godzilla--><ellipse cx="382" cy="375.75" fill="#FEFECE" filter="url(#fs38d6u45sdie)" rx="16" ry="16" style="stroke:#A80036;stroke-width:1.5;"/><path d="M382,395.75 C386,395.75 389,395.75 393,391.75 C401,391.75 409,399.75 409,407.75 L409,411.75 C409,415.75 405,419.75 401,419.75 L363,419.75 C359,419.75 355,415.75 355,411.75 L355,407.75 C355,399.75 363,391.75 371,391.75 C375,395.75 378,395.75 382,395.75 " fill="#FEFECE" filter="url(#fs38d6u45sdie)" style="stroke:#A80036;stroke-width:1.5;"/><text fill="#000000" font-family="sans-serif" font-size="14" lengthAdjust="spacing" textLength="57" x="353.5" y="434.2451">Godzilla</text><text fill="#000000" font-family="sans-serif" font-size="14" font-style="italic" lengthAdjust="spacing" textLength="65" x="349.5" y="354.9482">«Server»</text><path d="M290,472.9531 L290,513.2188 A0,0 0 0 0 290,513.2188 L474,513.2188 A0,0 0 0 0 474,513.2188 L474,482.9531 L464,472.9531 L386,472.9531 L382,438.1931 L378,472.9531 L290,472.9531 A0,0 0 0 0 290,472.9531 " fill="#FBFB77" filter="url(#fs38d6u45sdie)" style="stroke:#A80036;stroke-width:1.0;"/><path d="M464,472.9531 L464,482.9531 L474,482.9531 L464,472.9531 " fill="#FBFB77" style="stroke:#A80036;stroke-width:1.0;"/><text fill="#000000" font-family="sans-serif" font-size="13" lengthAdjust="spacing" textLength="163" x="296" y="490.02">Godzilla is Hosted in IIS or</text><text fill="#000000" font-family="sans-serif" font-size="13" lengthAdjust="spacing" textLength="130" x="296" y="505.1528">another web server.</text><!--MD5=[0c86d43f3d342422c7f0385c9472dd83]
link ReadRes to Godzilla--><path d="M192.797,432.8151 C238.66,422.3701 303.638,407.5721 344.005,398.3781 " fill="none" id="ReadRes-to-Godzilla" style="stroke:#A80036;stroke-width:2.0;"/><polygon fill="#A80036" points="349.289,397.1751,339.6256,395.2727,344.4137,398.285,341.4015,403.0731,349.289,397.1751" style="stroke:#A80036;stroke-width:2.0;"/><!--MD5=[7f75b4e6423afd5ab3b57240e6a1138a]
link SaveRes to Godzilla--><path d="M208.514,509.3351 C232.551,504.4981 258.384,495.7291 278,479.9531 C287.293,472.4791 282.286,465.0481 290,455.9531 C305.363,437.8421 326.682,422.0361 344.823,410.4361 " fill="none" id="SaveRes-to-Godzilla" style="stroke:#A80036;stroke-width:2.0;"/><polygon fill="#A80036" points="349.362,407.5791,339.6147,408.9896,345.1309,410.2432,343.8772,415.7594,349.362,407.5791" style="stroke:#A80036;stroke-width:2.0;"/><!--MD5=[ac63ffc9e41afcfcec8629973f872c85]
link RemoveRes to Godzilla--><path d="M220.086,581.7301 C241.763,576.3971 263.258,566.8171 278,549.9531 C305.719,518.2441 268.522,492.1821 290,455.9531 C302.57,434.7501 324.886,418.4041 344.272,407.2841 " fill="none" id="RemoveRes-to-Godzilla" style="stroke:#A80036;stroke-width:2.0;"/><polygon fill="#A80036" points="349.13,404.5691,339.3223,405.4683,344.7654,407.0085,343.2253,412.4516,349.13,404.5691" style="stroke:#A80036;stroke-width:2.0;"/><!--MD5=[9f07e4d88a2cc3b3e1c006c1c62a2590]
link Godzilla to Notification--><path d="M349.161,404.0891 C328.506,415.0731 303.085,432.4121 290,455.9531 C271.816,488.6681 301.355,594.7051 278,623.9531 C265.642,639.4291 247.765,649.3569 228.938,655.6856 " fill="none" id="Godzilla-to-Notification" style="stroke:#A80036;stroke-width:2.0;"/><polygon fill="#A80036" points="224.134,657.2183,233.924,658.2931,228.8974,655.6983,231.4921,650.6717,224.134,657.2183" style="stroke:#A80036;stroke-width:2.0;"/><!--MD5=[a159694e54d085d715b9630894b51f2b]
link HttpGet to Godzilla--><path d="M191.012,346.6841 C236.882,357.1311 302.888,372.1631 343.797,381.4801 " fill="none" id="HttpGet-to-Godzilla" style="stroke:#A80036;stroke-width:2.0;"/><polygon fill="#A80036" points="349.152,382.7001,341.2645,376.8021,344.2767,381.5902,339.4886,384.6025,349.152,382.7001" style="stroke:#A80036;stroke-width:2.0;"/><!--MD5=[521a3cbd9f29b42a635fb63e3a54e4ac]
link HttpPost to Godzilla--><path d="M202.793,274.4241 C227.23,279.7251 254.826,287.8051 278,299.9531 C303.041,313.0801 327.069,333.4641 345.61,351.5161 " fill="none" id="HttpPost-to-Godzilla" style="stroke:#A80036;stroke-width:2.0;"/><polygon fill="#A80036" points="349.244,355.0921,345.6343,345.9286,345.68,351.5853,340.0233,351.631,349.244,355.0921" style="stroke:#A80036;stroke-width:2.0;"/><!--MD5=[40e93637284c2a027d780619d20e30be]
link HttpPut to Godzilla--><path d="M205.478,201.7921 C229.994,206.5001 256.939,214.9241 278,229.9531 C315.446,256.6731 342.63,301.6641 359.636,337.1441 " fill="none" id="HttpPut-to-Godzilla" style="stroke:#A80036;stroke-width:2.0;"/><polygon fill="#A80036" points="361.865,341.8631,361.6379,332.0169,359.7295,337.3421,354.4043,335.4337,361.865,341.8631" style="stroke:#A80036;stroke-width:2.0;"/><!--MD5=[3fcdb31ae4b80ce79bbfbd8aa855b6b2]
link HttpDelete to Godzilla--><path d="M214.624,132.5491 C237.001,137.9001 260.258,146.8951 278,161.9531 C330.933,206.8801 357.92,284.5911 370.725,336.6321 " fill="none" id="HttpDelete-to-Godzilla" style="stroke:#A80036;stroke-width:2.0;"/><polygon fill="#A80036" points="371.921,341.5861,373.698,331.8989,370.748,336.7257,365.9213,333.7757,371.921,341.5861" style="stroke:#A80036;stroke-width:2.0;"/><!--MD5=[443c65882d1c990e5251385e0f356d59]
@startuml
title Godzilla Use Cases
'https://plantuml.com/use-case-diagram
left to right direction

skinparam actorStyle awesome

actor Godzilla << Server >>
note bottom of Godzilla
    Godzilla is Hosted in IIS or
    another web server.
end note

rectangle Browser{
    rectangle HTTP {
        usecase (GET Resource) as HttpGet
        usecase (POST Resource) as HttpPost
        usecase (PUT Resource) as HttpPut
        usecase (DELETE Resource) as HttpDelete
    }

    rectangle WebSocket {
        usecase (Read Resource) as ReadRes
        usecase (Save Resource) as SaveRes
        usecase (Remove Resource) as RemoveRes
        usecase (Send Notification) << Event >> as Notification
    }
}

Godzilla <=l= ReadRes
Godzilla <=l= SaveRes
Godzilla <=l= RemoveRes

Godzilla =d=> Notification

Godzilla <=u= HttpGet
Godzilla <=u= HttpPost
Godzilla <=u= HttpPut
Godzilla <=u= HttpDelete
@enduml

@startuml
title Godzilla Use Cases
left to right direction

skinparam actorStyle awesome

actor Godzilla << Server >>
note bottom of Godzilla
    Godzilla is Hosted in IIS or
    another web server.
end note

rectangle Browser{
    rectangle HTTP {
        usecase (GET Resource) as HttpGet
        usecase (POST Resource) as HttpPost
        usecase (PUT Resource) as HttpPut
        usecase (DELETE Resource) as HttpDelete
    }

    rectangle WebSocket {
        usecase (Read Resource) as ReadRes
        usecase (Save Resource) as SaveRes
        usecase (Remove Resource) as RemoveRes
        usecase (Send Notification) << Event >> as Notification
    }
}

Godzilla <=l= ReadRes
Godzilla <=l= SaveRes
Godzilla <=l= RemoveRes

Godzilla =d=> Notification

Godzilla <=u= HttpGet
Godzilla <=u= HttpPost
Godzilla <=u= HttpPut
Godzilla <=u= HttpDelete
@enduml

PlantUML version 1.2021.4beta3(Unknown compile time)
(GPL source distribution)
Java Runtime: Java(TM) SE Runtime Environment
JVM: Java HotSpot(TM) 64-Bit Server VM
Default Encoding: UTF-8
Language: en
Country: US
--></g></svg>